<svg xmlns="http://www.w3.org/2000/svg" version="1.1" xmlns:xlink="http://www.w3.org/1999/xlink" xmlns:svgjs="http://svgjs.dev/svgjs" viewBox="0 0 600 600"><path d="M478.0469029481226 255.2136286989507C485.68163805554445 292.33937637961435 476.99902086804445 360.7525436973226 457.3882420594507 395.3333796755128C437.77746325085695 429.91421565370285 401.4001973206812 453.4172063763591 360.3822300965601 462.6986445680909C319.364262872439 471.9800827598226 250.501994424563 464.1956589316976 211.28043871472414 451.0220088259034C172.05888300488527 437.8483587201091 137.47804511934655 417.039978593156 125.05289583752688 383.6567439333253C112.6277465557072 350.2735092734945 121.75948267529543 290.5429616864177 136.72954302380617 250.72260086691946C151.69960337231691 210.90224004742078 185.98104219983156 164.34535655336154 214.87325792859133 144.73457901633353C243.7654736573511 125.12380147930553 277.2984084819767 128.4172165488856 310.08283739636477 133.0579356447515C342.86726631075277 137.6986547406174 383.5858204896265 152.21961141582898 411.57983141491945 172.57889359152884C439.5738423402124 192.9381757672287 470.4121678407007 218.08788101828665 478.0469029481226 255.2136286989507C485.68163805554445 292.33937637961435 476.99902086804445 360.7525436973226 457.3882420594507 395.3333796755128 " fill="hsl(340, 45%, 50%)" stroke-width="0" stroke="hsl(340, 45%, 30%)" transform="matrix(1.6207603342349721,0,0,1.6207603342349721,-186.43963945125262,-185.1955363341146)"></path><defs><linearGradient id="SvgjsLinearGradient1000"><stop stop-color="hsl(340, 45%, 50%)" offset="0"></stop><stop stop-color="hsl(340, 45%, 80%)" offset="1"></stop></linearGradient></defs></svg>